<?xml version="1.0" standalone="no"?>
<!DOCTYPE svg PUBLIC "-//W3C//DTD SVG 20010904//EN"
 "http://www.w3.org/TR/2001/REC-SVG-20010904/DTD/svg10.dtd">
<svg version="1.0" xmlns="http://www.w3.org/2000/svg"
 width="700.000000pt" height="700.000000pt" viewBox="0 0 700.000000 700.000000"
 preserveAspectRatio="xMidYMid meet">
<metadata>
Created by potrace 1.14, written by Peter Selinger 2001-2017
</metadata>
<g transform="translate(0.000000,700.000000) scale(0.100000,-0.100000)"
fill="#000000" stroke="none">
<path d="M0 3500 l0 -3500 2095 0 2095 0 0 1677 c0 922 -2 1674 -4 1672 -3 -3
-182 -526 -368 -1072 l-20 -57 -294 0 c-269 0 -294 1 -302 18 -5 9 -115 325
-243 702 l-234 685 -5 -700 -5 -700 -355 0 -355 0 0 1280 0 1280 430 3 430 2
320 -830 c203 -526 323 -826 328 -818 5 7 147 380 316 828 l308 815 432 3 431
2 0 -2395 0 -2395 1000 0 1000 0 0 3500 0 3500 -3500 0 -3500 0 0 -3500z"/>
</g>
</svg>
